<svg width="33" height="30" viewBox="0 0 33 30" fill="none" xmlns="http://www.w3.org/2000/svg">
<g clip-path="url(#clip0_26_90)">
<path d="M17.2535 27.5443C13.6377 30.8326 7.82401 30.8196 4.22836 27.4984C0.633753 24.1791 0.619588 18.8081 4.17999 15.4683L4.177 15.4663L17.2556 3.38651L18.8912 1.87637C21.6 -0.625458 25.9909 -0.625458 28.6997 1.87637C31.4085 4.3782 31.4085 8.4342 28.6997 10.937L14.2828 24.1146L14.2777 24.1108C12.501 25.693 9.66922 25.6818 7.91372 24.0686C6.15822 22.4545 6.14716 19.8524 7.86834 18.2213L7.86328 18.2156L9.46861 16.7421L17.4954 9.36783L19.0997 10.8433L9.46861 19.691C8.58176 20.5047 8.58176 21.8255 9.46861 22.64C10.3555 23.4545 11.7935 23.4545 12.6793 22.64L27.0648 9.42492L27.0608 9.42214L27.1153 9.37897C28.9212 7.71137 28.9212 5.00612 27.1153 3.33863C25.3093 1.67114 22.3829 1.67103 20.577 3.33863L20.5286 3.3893L20.5256 3.38737L18.891 4.89654L5.81158 16.9765C3.10279 19.4783 3.10279 23.5343 5.81158 26.0361C8.52038 28.538 12.9122 28.538 15.619 26.0361L27.063 15.4663L28.6976 13.9572L30.3322 15.4663L28.6976 16.9765L17.2556 27.5463C17.2556 27.5462 17.2535 27.5443 17.2535 27.5443Z" fill="#BEC4C4"/>
</g>
<defs>
<clipPath id="clip0_26_90">
<rect width="32.2526" height="30" fill="white"/>
</clipPath>
</defs>
</svg>
